<svg width="70" height="70" xmlns="http://www.w3.org/2000/svg" xmlns:xlink="http://www.w3.org/1999/xlink" xml:space="preserve" overflow="hidden"><defs><clipPath id="clip0"><rect x="706" y="430" width="70" height="70"/></clipPath><clipPath id="clip1"><rect x="706" y="430" width="70" height="70"/></clipPath><clipPath id="clip2"><rect x="707" y="431" width="68" height="68"/></clipPath><clipPath id="clip3"><rect x="707" y="440" width="69" height="59"/></clipPath></defs><g clip-path="url(#clip0)" transform="translate(-706 -430)"><g clip-path="url(#clip1)"><g clip-path="url(#clip2)"><g clip-path="url(#clip3)"><g><path d="M662.391 64.4641 662.391 61.2584 676.112 61.2584 676.112 64.4641 662.391 64.4641ZM672.866 83.0161C670.7 83.0161 669.023 82.4346 667.834 81.2716 666.641 80.1086 666.048 78.4424 666.048 76.2804L666.048 56.5505 669.943 56.5505 669.943 76.1164C669.943 77.2794 670.234 78.174 670.816 78.7965 671.397 79.419 672.228 79.7284 673.313 79.7284 674.532 79.7284 675.546 79.3892 676.358 78.7145L677.577 81.5138C676.981 82.0283 676.273 82.4085 675.445 82.6507 674.618 82.893 673.76 83.0161 672.866 83.0161Z" fill="#000000" fill-rule="nonzero" fill-opacity="1" transform="matrix(1 0 0 1.00046 3.85987 441.026)"/><path d="M697.829 61.0534C699.589 61.0534 701.139 61.3926 702.477 62.0673 703.816 62.7457 704.867 63.7708 705.623 65.1537 706.38 66.5329 706.76 68.2811 706.76 70.3909L706.76 82.77 702.865 82.77 702.865 70.8344C702.865 68.7508 702.358 67.1815 701.344 66.1266 700.33 65.0717 698.903 64.5424 697.061 64.5424 695.682 64.5424 694.478 64.8145 693.449 65.355 692.42 65.8955 691.63 66.6932 691.075 67.748 690.519 68.8029 690.244 70.115 690.244 71.6843L690.244 82.7663 686.348 82.7663 686.348 52.6478 690.244 52.6478 690.244 67.0584 689.472 65.5153C690.177 64.11 691.257 63.0103 692.719 62.2276 694.18 61.441 695.883 61.0497 697.833 61.0497Z" fill="#000000" fill-rule="nonzero" fill-opacity="1" transform="matrix(1 0 0 1.00046 3.85987 441.026)"/><path d="M718.044 82.77 718.044 61.2547 721.779 61.2547 721.779 67.0994 721.413 65.6383C722.01 64.151 723.009 63.0141 724.418 62.2276 725.823 61.441 727.556 61.0497 729.614 61.0497L729.614 64.8257C729.45 64.7996 729.297 64.7847 729.148 64.7847L728.723 64.7847C726.639 64.7847 724.988 65.4072 723.769 66.6521 722.55 67.8971 721.943 69.6975 721.943 72.0496L721.943 82.7663 718.047 82.7663Z" fill="#000000" fill-rule="nonzero" fill-opacity="1" transform="matrix(1 0 0 1.00046 3.85987 441.026)"/><path d="M747.472 83.0161C745.307 83.0161 743.387 82.5427 741.71 81.5959 740.032 80.6491 738.705 79.3444 737.732 77.6782 736.76 76.0157 736.271 74.1259 736.271 72.0161 736.271 69.9063 736.76 67.9829 737.732 66.3316 738.705 64.6803 740.032 63.3868 741.71 62.4549 743.387 61.5231 745.307 61.0534 747.472 61.0534 749.638 61.0534 751.524 61.5193 753.217 62.4549 754.909 63.3868 756.232 64.6728 757.194 66.3129 758.156 67.9493 758.636 69.8504 758.636 72.0161 758.636 74.1818 758.156 76.0493 757.194 77.7006 756.232 79.3519 754.905 80.6491 753.217 81.5959 751.524 82.5427 749.608 83.0161 747.472 83.0161ZM747.472 79.6054C748.852 79.6054 750.089 79.296 751.185 78.6735 752.281 78.051 753.138 77.1638 753.765 76.0157 754.387 74.8639 754.696 73.5332 754.696 72.0161 754.696 70.499 754.383 69.1422 753.765 68.0164 753.142 66.8944 752.285 66.0222 751.185 65.3997 750.089 64.7772 748.852 64.4678 747.472 64.4678 746.093 64.4678 744.859 64.7809 743.779 65.3997 742.698 66.0222 741.829 66.8944 741.18 68.0164 740.532 69.1384 740.208 70.4729 740.208 72.0161 740.208 73.5593 740.532 74.8639 741.18 76.0157 741.829 77.1675 742.694 78.051 743.779 78.6735 744.859 79.296 746.093 79.6054 747.472 79.6054Z" fill="#000000" fill-rule="nonzero" fill-opacity="1" transform="matrix(1 0 0 1.00046 3.85987 441.026)"/><path d="M764.239 82.77 773.495 70.7562 773.453 72.7467 764.645 61.2584 768.988 61.2584 775.727 70.1076 774.065 70.1076 780.804 61.2584 785.065 61.2584 776.133 72.8287 776.175 70.7599 785.512 82.7738 781.087 82.7738 773.983 73.358 775.567 73.6003 768.585 82.7738 764.243 82.7738Z" fill="#000000" fill-rule="nonzero" fill-opacity="1" transform="matrix(1 0 0 1.00046 3.85987 441.026)"/><path d="M793.545 90.8886C792.516 90.8886 791.513 90.7209 790.541 90.3817 789.568 90.0425 788.729 89.5504 788.024 88.8981L789.687 85.9757C790.227 86.4901 790.824 86.8815 791.472 87.1536 792.121 87.422 792.811 87.5599 793.541 87.5599 794.488 87.5599 795.274 87.3176 795.897 86.8293 796.52 86.341 797.101 85.4762 797.641 84.2312L798.98 81.2678 799.386 80.7795 807.829 61.2547 811.646 61.2547 801.212 84.9208C800.59 86.4379 799.893 87.627 799.121 88.4918 798.35 89.3566 797.504 89.9716 796.583 90.3369 795.662 90.7022 794.648 90.8849 793.537 90.8849ZM798.659 83.4596 788.837 61.2547 792.896 61.2547 801.257 80.4142 798.659 83.4596Z" fill="#000000" fill-rule="nonzero" fill-opacity="1" transform="matrix(1 0 0 1.00046 3.85987 441.026)"/><path d="M736.987 22.3727C736.927 22.3466 736.834 22.3019 736.704 22.2236 736.189 21.9105 735.671 21.6011 735.149 21.2917 735.123 21.2768 735.108 21.247 735.108 21.2172L735.108 16.8858C735.116 13.7956 735.119 11.1267 735.108 9.93762 735.108 9.79598 735.116 9.65433 735.123 9.50896 735.149 8.97219 735.183 8.30123 734.896 7.57063 734.654 6.95559 734.035 6.54183 733.36 6.54183 733.203 6.54183 733.047 6.5642 732.898 6.60893 731.675 6.98168 730.643 7.63027 729.644 8.2565 729.085 8.60689 728.559 8.93864 728.015 9.21075 725.972 10.2433 724.03 11.4659 722.371 12.532 721.954 12.8004 721.607 12.9308 721.313 12.9308 721.07 12.9308 720.817 12.8414 720.534 12.6625 720.012 12.3307 719.475 12.0549 718.957 11.7902 718.401 11.5069 717.872 11.2348 717.402 10.918 717.406 10.918 717.41 10.9142 717.414 10.9105 719.281 9.8258 721.152 8.74108 723.024 7.65637 727.046 5.32666 731.206 2.91494 735.287 0.521856 735.895 0.167739 736.417 2.15197e-15 736.927 2.15197e-15 737.438 2.15197e-15 738.027 0.186377 738.672 0.566586 742.053 2.56455 745.519 4.53642 748.87 6.44492 751.047 7.68619 753.299 8.96473 755.502 10.2396 755.625 10.3104 755.755 10.3812 755.882 10.452 756.128 10.5862 756.352 10.7055 756.549 10.8471 755.442 11.6262 754.201 12.2263 752.892 12.8563L752.546 13.024C752.43 13.024 752.08 12.8004 751.871 12.6662 751.726 12.573 751.584 12.4835 751.446 12.4053 749.072 11.0596 746.664 9.67297 744.338 8.33478L741.758 6.85122C741.732 6.83631 741.706 6.8214 741.684 6.80276 741.486 6.67602 741.117 6.43746 740.595 6.43746 740.409 6.43746 740.222 6.46728 740.036 6.52692L739.861 6.58284 739.712 6.69466C738.821 7.36562 738.903 8.35715 738.944 8.83427 738.951 8.92373 738.962 9.01319 738.959 9.10265 738.948 10.3141 738.951 12.8749 738.955 15.8458 738.955 17.5754 738.955 19.4242 738.955 21.1687 738.955 21.1985 738.94 21.2246 738.914 21.2395 738.388 21.5526 737.859 21.8658 737.337 22.1826 737.17 22.2832 737.058 22.3354 736.987 22.3652Z" fill="#000000" fill-rule="nonzero" fill-opacity="1" transform="matrix(1 0 0 1.00046 3.85987 441.026)"/><path d="M761.57 46.8477C761.406 46.8477 761.242 46.844 761.078 46.8365 760.892 46.8328 760.709 46.8254 760.523 46.8254 748.307 46.8328 736.1 46.8328 723.892 46.8328L715.915 46.8328C715.554 46.8328 715.192 46.8328 714.834 46.8403 714.473 46.8403 714.111 46.8477 713.749 46.8477 713.354 46.8477 712.959 46.8477 712.568 46.8328 710.767 46.7806 710.216 46.2662 710.208 44.6187 710.19 39.7393 710.19 34.778 710.193 29.9769 710.193 25.4852 710.193 20.9935 710.182 16.5018 710.182 15.6519 710.439 15.1114 711.084 14.6269 711.375 14.4069 711.733 14.2914 712.117 14.2914 712.449 14.2914 712.78 14.3809 713.075 14.5449L714.316 15.2494C716.165 16.2968 717.988 17.3293 719.799 18.3768 720.802 18.9545 721.805 19.5323 722.804 20.1064 725.707 21.7763 728.708 23.5021 731.63 25.2354 731.645 25.2466 731.679 25.2653 731.679 25.3212 731.679 25.3808 731.642 25.4032 731.627 25.4144L728.015 27.5279C728.015 27.5279 727.981 27.5428 727.963 27.5428 727.944 27.5428 727.929 27.5391 727.91 27.5279 723.188 24.8142 717.253 21.4147 715.803 20.6506L714.163 19.7821 714.163 42.8369 759.803 42.8369 759.803 19.5882 750.961 24.7024 729.446 37.2903C729.148 37.4655 728.809 37.5587 728.462 37.5587 727.94 37.5587 727.452 37.3574 727.087 36.9884 726.658 36.5597 726.457 35.967 726.535 35.3669 726.613 34.763 726.956 34.2449 727.482 33.9355L745.967 23.1219 745.967 23.1145C746.138 23.0138 747.074 22.4733 747.074 22.4733L748.08 21.8844 748.546 21.616C749.813 20.8817 755.498 17.5903 755.498 17.5903 757.22 16.5913 759.054 15.5327 760.884 14.5411 761.182 14.3809 761.514 14.2914 761.842 14.2914 762.588 14.2914 763.229 14.7126 763.516 15.3873 763.743 15.9278 763.855 16.5242 763.855 17.2175 763.848 24.3222 763.848 31.4306 763.848 38.5353L763.848 44.067C763.848 45.6102 763.52 46.2923 762.588 46.6837 762.334 46.7918 762.029 46.8365 761.563 46.8365Z" fill="#000000" fill-rule="nonzero" fill-opacity="1" transform="matrix(1 0 0 1.00046 3.85987 441.026)"/></g></g></g></g></g></svg>